<svg xmlns="http://www.w3.org/2000/svg" width="27.67" height="30" viewBox="0 0 27.67 30"><defs><style>.a{fill:#1d1d1b;}</style></defs><g transform="translate(-2578.746 -1469.05)"><path class="a" d="M2580.24,1484.039a12.355,12.355,0,0,1,12.341-12.34,12.2,12.2,0,0,1,6.392,1.78l-2.439.652a.747.747,0,0,0,.192,1.469.76.76,0,0,0,.194-.025l3.989-1.067.014,0,.041-.013.03-.011.037-.017.03-.014.034-.019.03-.019.03-.021.03-.023.026-.022.029-.027.023-.023.028-.032.01-.012.01-.014.023-.033.02-.03.009-.014.008-.017.019-.035.012-.029.016-.038.01-.03.011-.038.008-.034.006-.035.005-.039,0-.032,0-.016c0-.008,0-.017,0-.025v-.032l0-.039,0-.035-.006-.036-.009-.039,0-.018-1.067-3.989a.747.747,0,1,0-1.443.386l.548,2.053a13.834,13.834,0,0,0-17.733,20.6.747.747,0,0,0,1.17-.93A12.205,12.205,0,0,1,2580.24,1484.039Z"/><path class="a" d="M2605.621,1479.407a13.786,13.786,0,0,0-2.2-3.967.747.747,0,1,0-1.17.929,12.215,12.215,0,0,1,2.673,7.67,12.356,12.356,0,0,1-12.341,12.341,12.2,12.2,0,0,1-6.368-1.766l2.415-.645a.747.747,0,1,0-.386-1.444l-3.819,1.021a.746.746,0,0,0-.562.282.738.738,0,0,0-.161.449v.038a.777.777,0,0,0,.025.191l1.066,3.989a.749.749,0,0,0,.722.555.715.715,0,0,0,.193-.026.746.746,0,0,0,.529-.915l-.555-2.077a13.842,13.842,0,0,0,19.942-16.625Z"/><path class="a" d="M2587.374,1486.78a.895.895,0,0,1-.976.109.613.613,0,0,1-.242-.308,1.771,1.771,0,0,1-.1-.55h-1.608a3.385,3.385,0,0,0,.29,1.426,1.714,1.714,0,0,0,.807.81l.535.26h.816a2.738,2.738,0,0,0,1.257-.266,1.82,1.82,0,0,0,.791-.765,2.474,2.474,0,0,0,.272-1.2v-.8a1.785,1.785,0,0,0-.305-1.064,1.5,1.5,0,0,0-.855-.58,1.817,1.817,0,0,0,.749-.6,1.46,1.46,0,0,0,.266-.859v-.719a2.074,2.074,0,0,0-.565-1.559,2.193,2.193,0,0,0-1.6-.55,2.653,2.653,0,0,0-1.263.269,1.759,1.759,0,0,0-.768.831,3.68,3.68,0,0,0-.29,1.463h1.608a2.064,2.064,0,0,1,.1-.587.7.7,0,0,1,.221-.329.559.559,0,0,1,.35-.106.529.529,0,0,1,.42.169.7.7,0,0,1,.149.478v.622a.9.9,0,0,1-.142.538.47.47,0,0,1-.4.194h-.6v1.529h.6a.622.622,0,0,1,.51.217.949.949,0,0,1,.179.617v.731A.8.8,0,0,1,2587.374,1486.78Z"/><path class="a" d="M2592.454,1479.649l-1.584,3.608c-.024.052-.048.108-.072.166s-.046.114-.067.166a6.911,6.911,0,0,0-.311,1,4.621,4.621,0,0,0-.106.992v.58a2.8,2.8,0,0,0,.269,1.278,1.828,1.828,0,0,0,.786.8,2.619,2.619,0,0,0,1.242.275,2.59,2.59,0,0,0,1.242-.278,1.853,1.853,0,0,0,.789-.813,2.812,2.812,0,0,0,.272-1.284v-.653a2.894,2.894,0,0,0-.239-1.23,1.746,1.746,0,0,0-.689-.78,2.069,2.069,0,0,0-1.079-.269,1.342,1.342,0,0,0-.293.032l1.568-3.6Zm.7,5.309a.943.943,0,0,1,.2.638v.616a.838.838,0,0,1-.19.592.833.833,0,0,1-1.1,0,.829.829,0,0,1-.193-.592v-.61a.979.979,0,0,1,.19-.638.667.667,0,0,1,.547-.233A.685.685,0,0,1,2593.158,1484.958Z"/><path class="a" d="M2596.663,1480.156a2.3,2.3,0,0,0-.6,1.7v4.363a2.331,2.331,0,1,0,4.654,0v-4.363a2.3,2.3,0,0,0-.6-1.7,2.772,2.772,0,0,0-3.451,0Zm2.291,1.182a1.193,1.193,0,0,1,.19.722v3.953a1.191,1.191,0,0,1-.19.725.756.756,0,0,1-1.13,0,1.19,1.19,0,0,1-.191-.725v-3.953a1.207,1.207,0,0,1,.188-.722.753.753,0,0,1,1.133,0Z"/></g></svg>